<svg width="3023" height="633" viewBox="0 0 3023 633" fill="none" xmlns="http://www.w3.org/2000/svg">
<g clip-path="url(#clip0_289_543)">
<path d="M528.908 609.888L183.08 609.796L4.57764e-05 316.408L162.748 23.1121L508.576 23.2041L691.656 316.592L528.908 609.888Z" stroke="#E32621" stroke-width="2" stroke-miterlimit="10"/>
<path d="M578.082 156.512H450.524L320.436 322.526H318.872L339.296 156.512H237.774L182.574 607.082H283.774L299.368 477.96L332.488 439.55H334.052L406.226 607.082H527.298L408.388 352.242L578.082 156.512ZM225.078 413.1L215.878 403.118C220.574 398.652 223.513 392.651 224.163 386.203C224.813 379.755 223.13 373.287 219.42 367.974L230.414 360.016C236.076 368.042 238.641 377.846 237.636 387.616C237.178 393.014 235.612 398.26 233.036 403.026C230.934 406.785 228.248 410.185 225.078 413.1ZM236.762 426.9C247.77 416.703 254.659 402.825 256.128 387.892C257.612 372.95 253.659 357.974 244.996 345.71L257.646 336.51C268.555 351.833 273.52 370.599 271.616 389.311C269.711 408.024 261.068 425.405 247.296 438.216L236.762 426.9ZM304.934 391.526C303.443 406.632 298.905 421.279 291.594 434.582C288.064 441.023 283.92 447.108 279.22 452.752C276.093 456.477 272.744 460.01 269.192 463.332L258.106 451.326C275.491 435.259 286.405 413.393 288.794 389.841C291.183 366.29 284.882 342.677 271.078 323.446L284.326 313.878C287.169 317.855 289.765 322.003 292.1 326.298C295.554 332.779 298.387 339.571 300.564 346.584C305.061 361.143 306.548 376.466 304.934 391.618V391.526Z" fill="#E32621"/>
<path d="M1160.14 137.48L1029.06 300.808L1119.18 501H1025.99L967.112 358.664L932.808 399.112L920.52 501H839.112L883.656 137.48H965.064L947.144 285.96L948.68 286.472L1061.83 137.48H1160.14ZM1247.98 505.608C1184.49 505.608 1141.99 466.696 1141.99 398.088C1141.99 317.704 1192.17 246.024 1280.23 246.024C1344.74 246.024 1387.24 284.936 1387.24 353.032C1387.24 434.44 1343.72 505.608 1247.98 505.608ZM1253.61 437C1287.4 437 1309.42 399.112 1309.42 358.152C1309.42 322.312 1287.91 314.632 1274.09 314.632C1240.3 314.632 1219.82 355.592 1219.82 393.992C1219.82 423.688 1237.22 437 1253.61 437ZM1414.46 501L1445.69 250.632H1521.98L1517.88 285.448L1518.9 285.96C1541.43 259.848 1569.08 246.024 1601.85 246.024C1649.46 246.024 1668.92 277.768 1659.7 347.912L1639.74 501H1563.45L1581.37 365.32C1585.98 330.504 1582.9 314.632 1566.52 314.632C1543.48 314.632 1510.71 345.864 1502.52 408.328L1491.26 501H1414.46ZM1694.46 501L1725.69 250.632H1801.98L1797.88 285.448L1798.9 285.96C1821.43 259.848 1849.08 246.024 1881.85 246.024C1929.46 246.024 1948.92 277.768 1939.7 347.912L1919.74 501H1843.45L1861.37 365.32C1865.98 330.504 1862.9 314.632 1846.52 314.632C1823.48 314.632 1790.71 345.864 1782.52 408.328L1771.26 501H1694.46ZM2198.71 315.144C2197.69 378.632 2124.47 402.696 2050.74 410.376C2055.35 432.904 2071.74 442.12 2086.58 442.12C2103.48 442.12 2118.33 435.464 2132.15 417.032L2189.5 450.824C2162.87 487.176 2129.59 505.608 2080.44 505.608C2017.46 505.608 1975.48 465.672 1975.99 400.648C1975.99 315.656 2028.73 246.024 2113.21 246.024C2153.66 246.024 2199.22 268.04 2198.71 315.144ZM2124.98 325.896C2125.5 315.656 2118.33 310.024 2106.55 310.024C2084.54 310.024 2062.01 329.48 2053.3 364.296C2090.68 360.2 2124.47 350.472 2124.98 325.896ZM2325.48 505.608C2260.45 505.608 2219.49 467.72 2219.49 396.552C2219.49 319.752 2266.08 246.024 2352.61 246.024C2397.16 246.024 2428.39 262.408 2448.87 292.104L2389.99 336.136C2381.8 320.264 2369 314.12 2354.66 314.12C2320.36 314.12 2296.8 351.496 2296.8 393.48C2296.8 420.616 2310.12 437 2331.11 437C2345.44 437 2359.78 430.856 2374.63 412.936L2434.02 450.824C2407.91 486.664 2373.6 505.608 2325.48 505.608ZM2538.2 505.608C2499.28 505.608 2471.12 483.592 2478.29 425.736L2491.6 312.584H2467.03L2474.71 250.632H2499.28L2509.01 177.416L2587.35 162.056L2576.6 250.632H2628.31L2620.63 312.584H2568.92L2556.63 415.496C2554.58 429.832 2559.7 436.488 2567.89 436.488C2574.55 436.488 2583.25 433.416 2592.98 428.296L2605.27 488.2C2583.76 499.976 2561.24 505.608 2538.2 505.608ZM2715.34 218.376C2688.2 218.376 2669.26 199.432 2669.26 174.344C2669.26 148.232 2688.72 129.288 2716.88 129.288C2744.52 129.288 2762.96 147.72 2762.96 172.808C2762.96 198.92 2743.5 218.376 2715.34 218.376ZM2637 501L2667.72 250.632H2744.52L2713.8 501H2637ZM2983.41 504.584C2978.29 505.096 2973.17 505.608 2960.88 505.608C2921.97 505.608 2903.54 475.912 2889.72 433.928L2885.11 418.568C2875.38 424.712 2865.65 429.832 2854.9 434.44L2847.22 501H2771.96L2818.55 124.168H2894.84L2866.16 357.128L2867.19 357.64C2908.66 328.456 2928.12 291.592 2938.36 250.632H3017.72C3007.99 301.32 2981.88 343.816 2946.55 377.096L2953.72 398.6C2964.98 434.44 2978.29 440.584 3000.82 442.12L2983.41 504.584Z" fill="#E32621"/>
</g>
<defs>
<clipPath id="clip0_289_543">
<rect width="3022.66" height="633" fill="white"/>
</clipPath>
</defs>
</svg>
